HIERARCHY
ROOT Hips
{
	OFFSET -0.001795 -0.223333 0.028219
	CHANNELS 6 Xposition Yposition Zposition Zrotation Yrotation Xrotation 
	JOINT LeftUpLeg
	{
		OFFSET 0.069520 -0.091406 -0.006815
		CHANNELS 3 Zrotation Yrotation Xrotation
		JOINT LeftLeg
		{
			OFFSET 0.034277 -0.375199 -0.004496
			CHANNELS 3 Zrotation Yrotation Xrotation
			JOINT LeftFoot
			{
				OFFSET -0.013596 -0.397961 -0.043693
				CHANNELS 3 Zrotation Yrotation Xrotation
				JOINT LeftToe
				{
					OFFSET 0.026358 -0.055791 0.119288
					CHANNELS 3 Zrotation Yrotation Xrotation
					End Site
					{
						OFFSET 0.000000 0.000000 0.000000
					}
				}
			}
		}
	}
	JOINT RightUpLeg
	{
		OFFSET -0.067670 -0.090522 -0.004320
		CHANNELS 3 Zrotation Yrotation Xrotation
		JOINT RightLeg
		{
			OFFSET -0.038290 -0.382569 -0.008850
			CHANNELS 3 Zrotation Yrotation Xrotation
			JOINT RightFoot
			{
				OFFSET 0.015774 -0.398415 -0.042312
				CHANNELS 3 Zrotation Yrotation Xrotation
				JOINT RightToe
				{
					OFFSET -0.025372 -0.048144 0.123348
					CHANNELS 3 Zrotation Yrotation Xrotation
					End Site
					{
						OFFSET 0.000000 0.000000 0.000000
					}
				}
			}
		}
	}
	JOINT Spine
	{
		OFFSET -0.002533 0.108963 -0.026696
		CHANNELS 3 Zrotation Yrotation Xrotation
		JOINT Spine1
		{
			OFFSET 0.005487 0.135180 0.001092
			CHANNELS 3 Zrotation Yrotation Xrotation
			JOINT Spine2
			{
				OFFSET 0.001457 0.052922 0.025425
				CHANNELS 3 Zrotation Yrotation Xrotation
				JOINT Neck
				{
					OFFSET -0.002778 0.213870 -0.042857
					CHANNELS 3 Zrotation Yrotation Xrotation
					JOINT Head
					{
						OFFSET 0.005152 0.064970 0.051349
						CHANNELS 3 Zrotation Yrotation Xrotation
						End Site
						{
							OFFSET 0.000000 0.000000 0.000000
						}
					}
				}
				JOINT LeftShoulder
				{
					OFFSET 0.078845 0.121749 -0.034090
					CHANNELS 3 Zrotation Yrotation Xrotation
					JOINT LeftArm
					{
						OFFSET 0.090977 0.030469 -0.008868
						CHANNELS 3 Zrotation Yrotation Xrotation
						JOINT LeftForeArm
						{
							OFFSET 0.259612 -0.012772 -0.027456
							CHANNELS 3 Zrotation Yrotation Xrotation
							JOINT LeftHand
							{
								OFFSET 0.249234 0.008986 -0.001171
								CHANNELS 3 Zrotation Yrotation Xrotation
								End Site
								{
									OFFSET 0.000000 0.000000 0.000000
								}
							}
						}
					}
				}
				JOINT RightShoulder
				{
					OFFSET -0.081759 0.118833 -0.038615
					CHANNELS 3 Zrotation Yrotation Xrotation
					JOINT RightArm
					{
						OFFSET -0.096012 0.032551 -0.009143
						CHANNELS 3 Zrotation Yrotation Xrotation
						JOINT RightForeArm
						{
							OFFSET -0.253742 -0.013329 -0.021401
							CHANNELS 3 Zrotation Yrotation Xrotation
							JOINT RightHand
							{
								OFFSET -0.255298 0.007772 -0.005559
								CHANNELS 3 Zrotation Yrotation Xrotation
								End Site
								{
									OFFSET 0.000000 0.000000 0.000000
								}
							}
						}
					}
				}
			}
		}
	}
}
MOTION
Frames: 12
Frame Time: 0.050000
0.000000 0.957703 0.000000 -1.630810 3.816098 -0.544634 2.542527 0.183907 3.608173 0.816586 0.009357 -2.246636 -0.996150 3.367186 11.670251 0.000000 0.000000 0.000000 0.262272 -0.104045 0.943446 -1.182898 0.147046 0.256883 5.344445 6.255944 11.646503 0.000000 0.000000 0.000000 0.266383 -0.106054 2.428796 0.826905 -0.310924 -1.753588 -0.604908 -1.089161 1.486384 2.685383 -0.758891 -11.975117 0.000000 0.000000 0.000000 -24.282130 -0.790302 -2.417638 -46.467392 -4.005789 -3.661373 -14.484576 -20.041419 3.220247 0.000000 0.000000 0.000000 23.031614 -0.370440 -2.198931 52.675225 5.267019 -2.651070 8.326520 19.967636 1.970897 0.000000 0.000000 0.000000 
0.000116 0.956343 0.000185 -1.537884 3.174995 -0.373297 2.098899 0.224454 3.801284 1.284900 -0.011033 -2.700277 -0.601019 3.847471 11.423476 0.000000 0.000000 0.000000 -0.491004 -0.055831 0.645248 -0.448866 0.072437 0.516621 5.972989 7.707383 11.140027 0.000000 0.000000 0.000000 0.344845 -0.105911 2.371185 -0.115077 0.092404 -0.976991 0.257410 -1.297808 0.476625 2.123591 -0.324368 -13.260840 0.000000 0.000000 0.000000 -24.515138 0.082865 -2.750946 -46.503496 -3.904989 -3.680325 -15.229192 -20.149703 3.393542 0.000000 0.000000 0.000000 21.980776 -0.809983 -2.611237 54.340777 4.281933 -2.999527 8.364261 20.695878 2.016206 0.000000 0.000000 0.000000 
0.000177 0.955485 0.000011 -1.245855 3.508103 -0.500346 1.994261 0.226789 3.783243 0.959689 0.006826 -2.485742 -0.733774 3.569499 11.169095 0.000000 0.000000 0.000000 -0.457041 -0.072641 0.799789 -1.040652 0.151006 0.701164 5.639737 7.498844 10.394989 0.000000 0.000000 0.000000 0.183683 -0.118245 2.763775 0.361380 -0.064424 -2.535033 -0.503553 -1.665264 1.454329 1.685727 -0.151292 -12.274632 0.000000 0.000000 0.000000 -23.525862 -0.103445 -2.488542 -47.025699 -3.445947 -3.986693 -15.170892 -20.487659 3.451043 0.000000 0.000000 0.000000 23.124453 -0.295376 -2.405026 53.178563 3.320187 -3.458656 7.798814 21.061647 1.972951 0.000000 0.000000 0.000000 
0.000064 0.955147 -0.000246 -1.452788 3.647032 -0.629566 2.132930 0.221894 3.831190 1.154602 -0.012551 -2.402475 -0.744992 3.489347 10.959413 0.000000 0.000000 0.000000 -0.548276 -0.072701 0.815453 -0.648278 0.108344 0.791731 5.915110 7.939510 10.647434 0.000000 0.000000 0.000000 0.197649 -0.131427 3.052467 -0.122645 0.126041 -1.710914 0.355494 -2.443775 0.288153 1.363219 0.014928 -12.552742 0.000000 0.000000 0.000000 -23.259380 0.956555 -2.835605 -47.448356 -3.760484 -3.878216 -15.796877 -20.243498 3.549528 0.000000 0.000000 0.000000 22.576583 -0.236614 -2.629896 53.003226 2.943437 -3.433426 8.818224 20.678497 2.048277 0.000000 0.000000 0.000000 
-0.000110 0.955160 -0.000632 -1.379390 3.999096 -0.710687 2.200331 0.213137 3.791983 0.976380 -0.001316 -2.304521 -0.928744 3.217345 10.944336 0.000000 0.000000 0.000000 -0.645182 -0.092403 1.027568 -0.462587 0.078249 0.602410 5.651510 7.448807 10.642454 0.000000 0.000000 0.000000 0.179870 -0.141819 3.304890 0.089561 0.050147 -2.208640 -0.019245 -2.310270 0.677278 1.366651 0.028084 -12.382663 0.000000 0.000000 0.000000 -22.958045 0.688497 -2.755418 -47.435831 -3.737750 -3.884989 -16.415137 -20.291545 3.653965 0.000000 0.000000 0.000000 22.964138 -0.380680 -2.620242 52.615488 2.825242 -3.522093 9.064044 20.126398 2.046756 0.000000 0.000000 0.000000 
-0.000213 0.955350 -0.000894 -1.383858 4.257610 -0.624591 2.140644 0.208457 3.713982 1.143685 -0.008940 -2.436199 -1.065247 3.047924 11.016345 0.000000 0.000000 0.000000 -0.706455 -0.090498 1.018193 -0.347607 0.057182 0.421131 5.651996 7.368309 10.852036 0.000000 0.000000 0.000000 0.058080 -0.137332 3.294411 0.161762 0.028450 -2.436852 0.194732 -2.489009 0.918367 1.226774 0.131046 -12.685827 0.000000 0.000000 0.000000 -23.151499 1.109511 -2.985787 -47.560122 -3.968714 -3.837674 -16.454466 -20.253162 3.660841 0.000000 0.000000 0.000000 22.596105 -0.382633 -2.594615 52.797257 2.950931 -3.500771 8.923061 19.444012 1.946665 0.000000 0.000000 0.000000 
-0.000208 0.955430 -0.000999 -1.325305 4.433235 -0.527586 2.069667 0.208650 3.687489 1.183899 -0.003422 -2.629791 -1.172757 2.921017 11.097641 0.000000 0.000000 0.000000 -0.690524 -0.096051 1.069613 -0.544175 0.070109 0.174480 5.681069 7.428618 10.896198 0.000000 0.000000 0.000000 0.090421 -0.137654 3.275549 0.109517 0.060706 -2.609611 0.073462 -2.511165 1.044634 1.413966 0.035402 -12.867177 0.000000 0.000000 0.000000 -23.103102 1.324170 -3.128949 -47.817523 -3.836981 -3.911908 -16.725589 -20.223287 3.701111 0.000000 0.000000 0.000000 22.484721 -0.254854 -2.472603 53.016004 2.934382 -3.542004 8.997874 19.349171 1.952369 0.000000 0.000000 0.000000 
-0.000073 0.955319 -0.000948 -1.342017 4.696201 -0.350024 2.019185 0.200102 3.563255 1.332731 -0.006243 -2.817787 -1.289951 2.750056 11.082678 0.000000 0.000000 0.000000 -0.696670 -0.101855 1.127998 -0.551591 0.057491 -0.146076 5.652271 7.449499 10.822536 0.000000 0.000000 0.000000 0.027882 -0.132296 3.198201 0.116773 0.056429 -2.538336 0.030315 -2.382444 0.801548 1.435471 0.029873 -12.660495 0.000000 0.000000 0.000000 -23.193804 1.315457 -3.224334 -47.821264 -3.714807 -3.914772 -16.916329 -20.184172 3.713109 0.000000 0.000000 0.000000 22.329377 -0.450905 -2.494735 53.048120 3.027707 -3.496022 9.177157 19.210965 1.971212 0.000000 0.000000 0.000000 
0.000060 0.955210 -0.000778 -1.343164 4.879013 -0.202163 1.972154 0.202941 3.601344 1.435080 0.003395 -3.198107 -1.390213 2.620438 11.123626 0.000000 0.000000 0.000000 -0.704016 -0.111769 1.229222 -0.579834 0.039025 -0.651052 5.701990 7.430663 11.089263 0.000000 0.000000 0.000000 0.010839 -0.125974 3.062572 0.050743 0.088415 -2.555337 0.095834 -2.450528 0.628895 1.320138 0.088245 -12.458588 0.000000 0.000000 0.000000 -23.401645 1.431631 -3.328369 -47.976260 -3.641376 -3.939061 -16.849128 -19.779499 3.621763 0.000000 0.000000 0.000000 22.417156 -0.301390 -2.421853 52.745617 3.192004 -3.386908 9.287321 19.182098 1.983019 0.000000 0.000000 0.000000 
0.000158 0.955014 -0.000594 -1.359846 5.059057 -0.121326 1.948170 0.201956 3.595178 1.531024 0.004536 -3.369352 -1.467123 2.496822 11.083080 0.000000 0.000000 0.000000 -0.681110 -0.128560 1.390101 -0.594803 0.026563 -0.978324 5.641103 7.383779 10.999142 0.000000 0.000000 0.000000 -0.002977 -0.116665 2.854262 0.027607 0.094881 -2.424113 0.000596 -2.309227 0.475214 1.237848 0.156157 -12.384437 0.000000 0.000000 0.000000 -23.290941 1.469747 -3.415247 -48.170872 -3.580246 -3.948084 -16.863002 -19.352747 3.531061 0.000000 0.000000 0.000000 22.487849 -0.217042 -2.309021 52.628019 3.387688 -3.299867 9.248253 19.137180 1.980274 0.000000 0.000000 0.000000 
0.000223 0.954966 -0.000435 -1.420491 5.276317 -0.117566 2.037396 0.202902 3.714616 1.525064 0.017346 -3.634600 -1.584599 2.331852 11.095657 0.000000 0.000000 0.000000 -0.628194 -0.138968 1.475459 -0.602575 0.017728 -1.204765 5.677662 7.338048 11.278316 0.000000 0.000000 0.000000 -0.034471 -0.113237 2.795830 -0.011444 0.115055 -2.440375 -0.018421 -2.321363 0.482161 1.246524 0.165493 -12.456366 0.000000 0.000000 0.000000 -23.430154 1.337461 -3.390269 -48.084828 -3.487050 -3.968945 -16.926120 -19.081737 3.485726 0.000000 0.000000 0.000000 22.614298 -0.169760 -2.262092 52.486513 3.702589 -3.165682 9.373001 19.048359 1.992432 0.000000 0.000000 0.000000 
0.000267 0.955006 -0.000316 -1.492828 5.520186 -0.121425 2.122143 0.201258 3.798915 1.555753 0.024861 -3.839140 -1.713692 2.154887 11.117243 0.000000 0.000000 0.000000 -0.503695 -0.153271 1.579378 -0.687583 0.022910 -1.298226 5.614270 7.260325 11.253520 0.000000 0.000000 0.000000 -0.046978 -0.113546 2.811418 -0.038461 0.127896 -2.408488 -0.113017 -2.328504 0.402973 1.178340 0.242493 -12.709112 0.000000 0.000000 0.000000 -23.454348 1.386167 -3.467622 -47.988276 -3.548843 -3.918259 -16.970622 -18.676326 3.409189 0.000000 0.000000 0.000000 22.796902 -0.227627 -2.274250 52.309801 3.968482 -3.045081 9.457607 18.881965 1.989525 0.000000 0.000000 0.000000 
